HIERARCHY
ROOT Hips
{
 OFFSET 0.000000 0.000000 0.000000
 CHANNELS 6 Xposition Yposition Zposition Yrotation Xrotation Zrotation
 JOINT Chest
 {
  OFFSET 0.000000 9.588913 -0.003946
  CHANNELS 3 Yrotation Xrotation Zrotation
  JOINT Chest2
  {
   OFFSET 0.000000 9.541882 0.008053
   CHANNELS 3 Yrotation Xrotation Zrotation
   JOINT Chest3
   {
    OFFSET 0.000000 9.501360 0.000000
    CHANNELS 3 Yrotation Xrotation Zrotation
    JOINT Chest4
    {
     OFFSET 0.000000 9.491660 0.000000
     CHANNELS 3 Yrotation Xrotation Zrotation
     JOINT Neck
     {
      OFFSET 0.000000 14.331917 0.000000
      CHANNELS 3 Yrotation Xrotation Zrotation
      JOINT Head
      {
       OFFSET 0.000000 8.884799 0.017034
       CHANNELS 3 Yrotation Xrotation Zrotation
       End Site
       {
        OFFSET 0.000000 16.896195 0.008993
       }
      }
     }
     JOINT RightCollar
     {
      OFFSET -2.923010 9.499495 0.000000
      CHANNELS 3 Yrotation Xrotation Zrotation
      JOINT RightShoulder
      {
       OFFSET -13.795216 0.000000 0.000000
       CHANNELS 3 Yrotation Xrotation Zrotation
       JOINT RightElbow
       {
        OFFSET -30.272209 0.000000 0.000000
        CHANNELS 3 Yrotation Xrotation Zrotation
        JOINT RightWrist
        {
         OFFSET -24.478199 0.000000 0.000000
         CHANNELS 3 Yrotation Xrotation Zrotation
         End Site
         {
          OFFSET -18.090752 0.000000 0.000000
         }
        }
       }
      }
     }
     JOINT LeftCollar
     {
      OFFSET 2.923010 9.499495 0.000000
      CHANNELS 3 Yrotation Xrotation Zrotation
      JOINT LeftShoulder
      {
       OFFSET 13.795216 0.000000 0.000000
       CHANNELS 3 Yrotation Xrotation Zrotation
       JOINT LeftElbow
       {
        OFFSET 30.272209 0.000000 0.000000
        CHANNELS 3 Yrotation Xrotation Zrotation
        JOINT LeftWrist
        {
         OFFSET 24.478199 0.000000 0.000000
         CHANNELS 3 Yrotation Xrotation Zrotation
         End Site
         {
          OFFSET 18.090752 0.000000 0.000000
         }
        }
       }
      }
     }
    }
   }
  }
 }
 JOINT RightHip
 {
  OFFSET -7.826875 0.019532 0.001973
  CHANNELS 3 Yrotation Xrotation Zrotation
  JOINT RightKnee
  {
   OFFSET 0.000000 -40.546152 -0.001885
   CHANNELS 3 Yrotation Xrotation Zrotation
   JOINT RightAnkle
   {
    OFFSET 0.000000 -39.417092 -0.003189
    CHANNELS 3 Yrotation Xrotation Zrotation
    JOINT RightToe
    {
     OFFSET 0.000000 -7.579396 17.243563
     CHANNELS 3 Yrotation Xrotation Zrotation
     End Site
     {
      OFFSET 0.000000 -1.500329 6.694466
     }
    }
   }
  }
 }
 JOINT LeftHip
 {
  OFFSET 7.826875 0.019532 0.001973
  CHANNELS 3 Yrotation Xrotation Zrotation
  JOINT LeftKnee
  {
   OFFSET 0.000000 -40.546152 -0.001885
   CHANNELS 3 Yrotation Xrotation Zrotation
   JOINT LeftAnkle
   {
    OFFSET 0.000000 -39.417092 -0.003189
    CHANNELS 3 Yrotation Xrotation Zrotation
    JOINT LeftToe
    {
     OFFSET 0.000000 -7.579396 17.243563
     CHANNELS 3 Yrotation Xrotation Zrotation
     End Site
     {
      OFFSET 0.000000 -1.500329 6.694466
     }
    }
   }
  }
 }
}
MOTION
Frames: 11
Frame Time: 0.008333
0.000000 87.345680 0.000000 0.000000 -5.767889 0.000000 0.000000 11.653876 0.000000 0.000000 -5.885988 0.000000 0.000000 -0.000000 0.000000 0.000000 -0.000000 0.000000 0.000000 12.528808 0.000000 0.000000 0.711711 0.000000 0.000000 -0.000000 0.000000 0.000000 -0.000000 0.000000 2.309063 -0.000000 0.000000 -2.309063 -0.000000 -0.000000 0.000000 -0.000000 0.000000 0.000000 0.000000 0.000000 -2.309063 0.000000 0.000000 2.309063 -0.000000 0.000000 0.000000 8.520374 0.000000 0.000000 1.905768 0.000000 -0.000000 -4.658254 0.000000 0.000000 -0.000000 0.000000 0.000000 8.520374 0.000000 0.000000 1.905768 0.000000 -0.000000 -4.658254 0.000000 0.000000 -0.000000 0.000000
5.853806 89.147284 -18.692041 136.384987 -5.219013 0.347951 -4.048453 2.065662 0.153794 -2.314470 1.177149 0.064853 -2.893032 1.471771 0.073635 -2.314470 1.177149 0.064853 5.980597 23.200229 -2.114931 7.034173 -0.492373 -3.689052 13.767235 -0.579130 -0.723938 -2.238805 -3.445414 90.578290 2.467140 5.824820 -1.161877 -2.075320 -1.885248 -1.561482 11.227557 -0.742173 -0.762586 -6.012760 -4.713479 -89.843972 4.066426 13.590877 2.615966 -1.328206 0.485676 0.427740 -7.919303 7.824965 -1.096204 -0.306775 0.007343 -0.525280 -3.618917 -2.665706 0.929428 0.003395 0.093574 0.003503 0.483474 9.295188 -0.002928 0.822592 1.811065 1.236686 7.184868 -5.620141 -0.779026 -0.004445 -0.065176 -0.003883
5.855413 89.146880 -18.691808 136.373409 -5.218309 0.348876 -4.048042 2.062371 0.153880 -2.314149 1.175080 0.064279 -2.892632 1.469181 0.072931 -2.314149 1.175080 0.064279 5.984483 23.200798 -2.112252 7.037888 -0.491499 -3.687039 13.758808 -0.579185 -0.718024 -2.253332 -3.440668 90.575972 2.457919 5.830296 -1.164562 -2.080024 -1.883149 -1.563069 11.222160 -0.743240 -0.759403 -6.003132 -4.710996 -89.851297 4.059179 13.593825 2.615526 -1.323684 0.482684 0.417988 -7.909710 7.822006 -1.097649 -0.302284 0.011580 -0.522308 -3.610106 -2.669456 0.926755 0.003838 0.092826 0.003693 0.488505 9.301520 -0.006870 0.825165 1.801651 1.242739 7.192071 -5.618117 -0.784234 -0.004592 -0.066635 -0.001923
5.857074 89.146407 -18.691633 136.366574 -5.216273 0.350840 -4.048627 2.058493 0.153648 -2.314378 1.172989 0.063592 -2.892921 1.466563 0.072085 -2.314378 1.172989 0.063592 5.986712 23.198786 -2.109984 7.039794 -0.493854 -3.685068 13.751562 -0.581906 -0.714849 -2.270206 -3.434058 90.576940 2.446329 5.834049 -1.167346 -2.081742 -1.883833 -1.563219 11.217206 -0.745350 -0.756287 -5.995779 -4.708078 -89.859087 4.054106 13.596555 2.614859 -1.319289 0.484024 0.409057 -7.904047 7.817945 -1.100483 -0.300497 0.015924 -0.519858 -3.598050 -2.673979 0.925496 0.004251 0.092684 0.003330 0.489590 9.306023 -0.008600 0.827053 1.793063 1.245398 7.188464 -5.616651 -0.789642 -0.005357 -0.068066 0.000419
5.858492 89.145829 -18.691182 136.364653 -5.210193 0.353554 -4.049572 2.052908 0.153315 -2.314880 1.169988 0.062991 -2.893550 1.462808 0.071351 -2.314880 1.169988 0.062991 5.986868 23.195477 -2.108280 7.039484 -0.497919 -3.683212 13.742821 -0.585723 -0.713270 -2.285456 -3.424611 90.578940 2.434039 5.834327 -1.169651 -2.081639 -1.889854 -1.560705 11.214969 -0.745797 -0.754830 -5.998251 -4.704720 -89.864838 4.051106 13.596925 2.613296 -1.316615 0.489102 0.404549 -7.902430 7.810945 -1.103045 -0.299345 0.018074 -0.516828 -3.592280 -2.678386 0.923271 0.004334 0.093428 0.002912 0.485718 9.305729 -0.011613 0.829777 1.784218 1.245694 7.187034 -5.614619 -0.791789 -0.005786 -0.069244 0.001434
5.859781 89.145134 -18.690062 136.362096 -5.198918 0.355281 -4.051412 2.045847 0.153611 -2.315970 1.165807 0.062984 -2.894913 1.457582 0.071365 -2.315970 1.165807 0.062984 5.988447 23.191323 -2.108161 7.041149 -0.502795 -3.683441 13.739106 -0.587838 -0.712142 -2.297170 -3.414145 90.578635 2.423358 5.826545 -1.171507 -2.080815 -1.892112 -1.554394 11.217861 -0.751084 -0.758021 -6.009054 -4.694763 -89.867407 4.049730 13.587051 2.611499 -1.314218 0.496808 0.401935 -7.897219 7.800107 -1.102183 -0.301567 0.016927 -0.513480 -3.592680 -2.680921 0.919751 0.003946 0.094432 0.002440 0.485951 9.298873 -0.013237 0.832842 1.777312 1.244655 7.184743 -5.613999 -0.790940 -0.005915 -0.069712 0.000839
5.861254 89.144374 -18.688560 136.357485 -5.185228 0.355927 -4.054616 2.038259 0.154430 -2.317838 1.161227 0.063454 -2.897245 1.451861 0.071976 -2.317838 1.161227 0.063454 5.993014 23.186819 -2.109401 7.046500 -0.507761 -3.685887 13.743224 -0.587928 -0.710728 -2.306715 -3.404067 90.574909 2.414458 5.814365 -1.171835 -2.080750 -1.886984 -1.548510 11.223615 -0.781164 -0.769480 -6.023805 -4.662128 -89.866468 4.053000 13.567207 2.610678 -1.313355 0.506046 0.400450 -7.888030 7.788557 -1.100418 -0.306587 0.012348 -0.508958 -3.590487 -2.681622 0.915613 0.004302 0.095448 0.002243 0.494554 9.288231 -0.010895 0.833889 1.773645 1.242542 7.173372 -5.615532 -0.790353 -0.006734 -0.069894 0.000313
5.863143 89.143619 -18.687247 136.354095 -5.172950 0.356558 -4.058238 2.030997 0.155026 -2.319942 1.157093 0.064019 -2.899873 1.446698 0.072701 -2.319942 1.157093 0.064019 5.998374 23.182878 -2.110284 7.052666 -0.512000 -3.688135 13.751916 -0.586991 -0.709604 -2.318477 -3.393291 90.572224 2.406471 5.804959 -1.172847 -2.082357 -1.878500 -1.546244 11.222722 -0.851091 -0.791347 -6.031675 -4.593924 -89.861254 4.061781 13.551797 2.612095 -1.312389 0.512998 0.400656 -7.882315 7.780529 -1.098900 -0.308604 0.004185 -0.504690 -3.591665 -2.681105 0.911484 0.005256 0.096478 0.002123 0.503856 9.278887 -0.006127 0.832976 1.770993 1.240597 7.152035 -5.617206 -0.791345 -0.008133 -0.070465 -0.000139
5.865637 89.142908 -18.686252 136.352903 -5.163794 0.356882 -4.062126 2.024297 0.155249 -2.322187 1.153474 0.064679 -2.902677 1.442178 0.073543 -2.322187 1.153474 0.064679 6.003888 23.180543 -2.109848 7.058710 -0.514362 -3.688974 13.765547 -0.585216 -0.708831 -2.333526 -3.380672 90.573269 2.398507 5.796211 -1.177108 -2.084344 -1.866021 -1.544920 11.210521 -0.961896 -0.826798 -6.025825 -4.487575 -89.847735 4.076009 13.542669 2.616266 -1.310048 0.520999 0.400418 -7.882566 7.776322 -1.095573 -0.307527 -0.004606 -0.502230 -3.602598 -2.680196 0.908423 0.005252 0.096947 0.000901 0.508955 9.273300 -0.001421 0.832265 1.767670 1.240987 7.128228 -5.618006 -0.793633 -0.009308 -0.071211 -0.001225
5.868839 89.142253 -18.685465 136.353893 -5.158005 0.356117 -4.066235 2.018714 0.156067 -2.324495 1.150418 0.065511 -2.905559 1.438364 0.074595 -2.324495 1.150418 0.065511 6.010946 23.179758 -2.109007 7.066421 -0.514746 -3.689748 13.780315 -0.584162 -0.708847 -2.349582 -3.366669 90.577308 2.390630 5.790511 -1.183676 -2.087559 -1.856518 -1.543241 11.186153 -1.101702 -0.880506 -6.006425 -4.355472 -89.817807 4.096351 13.538956 2.619416 -1.306229 0.528960 0.395679 -7.886355 7.775081 -1.091624 -0.308088 -0.011316 -0.501317 -3.609773 -2.679487 0.907489 0.004332 0.096362 -0.000875 0.508474 9.270809 0.000572 0.830160 1.764611 1.242936 7.123445 -5.618387 -0.795793 -0.009192 -0.071657 -0.002210
5.872348 89.141627 -18.684599 136.357126 -5.152881 0.354976 -4.069896 2.013159 0.157661 -2.326630 1.147186 0.066283 -2.908226 1.434329 0.075573 -2.326630 1.147186 0.066283 6.019834 23.180977 -2.108137 7.076221 -0.512559 -3.690941 13.793532 -0.583352 -0.710063 -2.369258 -3.351001 90.582663 2.384228 5.792543 -1.190078 -2.092837 -1.856872 -1.541150 11.154509 -1.240857 -0.949032 -5.979555 -4.227897 -89.769952 4.120186 13.539691 2.619922 -1.298680 0.536189 0.382996 -7.891585 7.774284 -1.088288 -0.310828 -0.016732 -0.502627 -3.606212 -2.678893 0.908522 0.003849 0.095445 -0.001789 0.502867 9.266935 -0.000341 0.826682 1.764533 1.243520 7.141765 -5.619436 -0.796333 -0.007990 -0.071791 -0.002692
